<svg width="364" height="197" viewBox="0 0 364 197" fill="none" xmlns="http://www.w3.org/2000/svg">
  <path
    d="M109.813 157.7V126.2H104.313V124.4H109.813V111.5L128.413 106.9V124.4H141.413V126.2H128.413V159.9C128.413 163.033 128.713 165.333 129.313 166.8C129.979 168.267 131.313 169 133.313 169C135.313 169 137.046 168 138.513 166C140.046 164 141.046 161.267 141.513 157.8L143.213 158C142.679 162.6 141.213 166.267 138.813 169C136.413 171.667 132.446 173 126.913 173C121.379 173 117.146 171.9 114.213 169.7C111.279 167.5 109.813 163.5 109.813 157.7ZM158.868 117.5C155.335 117.5 152.801 116.6 151.268 114.8C149.801 113 149.068 110.767 149.068 108.1C149.068 105.433 149.868 103.233 151.468 101.5C153.135 99.7667 155.635 98.9 158.968 98.9C162.301 98.9 164.835 99.7 166.568 101.3C168.301 102.833 169.168 105.067 169.168 108C169.168 110.867 168.335 113.167 166.668 114.9C165.001 116.633 162.401 117.5 158.868 117.5ZM143.768 124.4H168.268V170.2H173.868V172H144.168V170.2H149.668V126.2H143.768V124.4ZM171.879 126.2V124.4H201.779V126.2H195.479L207.479 159.4L218.279 126.2H211.579V124.4H225.079V126.2H220.679L205.879 172H194.479L175.979 126.2H171.879ZM240.802 117.5C237.268 117.5 234.735 116.6 233.202 114.8C231.735 113 231.002 110.767 231.002 108.1C231.002 105.433 231.802 103.233 233.402 101.5C235.068 99.7667 237.568 98.9 240.902 98.9C244.235 98.9 246.768 99.7 248.502 101.3C250.235 102.833 251.102 105.067 251.102 108C251.102 110.867 250.268 113.167 248.602 114.9C246.935 116.633 244.335 117.5 240.802 117.5ZM225.702 124.4H250.202V170.2H255.802V172H226.102V170.2H231.602V126.2H225.702V124.4ZM262.84 157.7V126.2H257.34V124.4H262.84V111.5L281.44 106.9V124.4H294.44V126.2H281.44V159.9C281.44 163.033 281.74 165.333 282.34 166.8C283.007 168.267 284.34 169 286.34 169C288.34 169 290.073 168 291.54 166C293.073 164 294.073 161.267 294.54 157.8L296.24 158C295.707 162.6 294.24 166.267 291.84 169C289.44 171.667 285.473 173 279.94 173C274.407 173 270.173 171.9 267.24 169.7C264.307 167.5 262.84 163.5 262.84 157.7ZM295.719 126.2V124.4H324.719V126.2H319.319L330.219 159.4L341.819 126.2H335.119V124.4H349.219V126.2H344.219L325.519 180.1C323.319 186.367 320.852 190.733 318.119 193.2C315.385 195.733 312.052 197 308.119 197C304.185 197 301.085 196.1 298.819 194.3C296.552 192.5 295.419 190.2 295.419 187.4C295.419 184.6 296.152 182.467 297.619 181C299.085 179.533 301.019 178.8 303.419 178.8C308.952 178.8 311.719 181.1 311.719 185.7C311.719 186.7 311.519 187.9 311.119 189.3H307.619C307.085 190.833 307.019 192.1 307.419 193.1C307.819 194.1 308.719 194.6 310.119 194.6C312.852 194.6 315.285 193.233 317.419 190.5C319.552 187.833 321.585 183.733 323.519 178.2L325.719 172H316.919L299.819 126.2H295.719ZM354.51 173C351.643 173 349.477 172.167 348.01 170.5C346.61 168.767 345.91 166.7 345.91 164.3C345.91 161.833 346.643 159.767 348.11 158.1C349.643 156.433 351.777 155.6 354.51 155.6C357.243 155.6 359.41 156.3 361.01 157.7C362.61 159.1 363.41 161.2 363.41 164C363.41 166.8 362.643 169 361.11 170.6C359.643 172.2 357.443 173 354.51 173Z"
    fill="#282828" />
  <path
    d="M24.6 63L24.1539 63.2258L24.155 63.228L24.6 63ZM56.9 49.6V49.1H56.5707L56.4407 49.4025L56.9 49.6ZM58.7 49.6L59.1998 49.6157L59.2159 49.1H58.7V49.6ZM58 71.9V72.4H58.4846L58.4998 71.9157L58 71.9ZM56.9 71.9L56.4611 72.1394L56.6032 72.4H56.9V71.9ZM55.8 70.4L55.4465 70.7536L55.466 70.7731L55.4877 70.7904L55.8 70.4ZM47.1 71.5L47.2158 71.9865L47.2231 71.9846L47.1 71.5ZM9 64.2L8.64845 64.5556L8.65044 64.5575L9 64.2ZM9.4 10.5L9.04274 10.1502L9.04088 10.1521L9.4 10.5ZM46.5 2.49999L46.367 2.98209L46.3768 2.98458L46.5 2.49999ZM54.9 3.6L55.2124 3.99043L55.234 3.97313L55.2536 3.95355L54.9 3.6ZM56 2V1.5H55.7032L55.5611 1.76057L56 2ZM57.1 2L57.5997 1.98157L57.5819 1.5H57.1V2ZM57.9 23.7V24.2H58.4188L58.3997 23.6816L57.9 23.7ZM56.1 23.7L55.6433 23.9035L55.7754 24.2H56.1V23.7ZM46.8 8.3L46.4228 8.62832L46.4294 8.63564L46.8 8.3ZM36 2.4C33.3328 2.4 30.976 3.04435 28.9483 4.34819C26.9229 5.65057 25.2542 7.59253 23.9311 10.1449C21.2924 15.2349 20 22.8064 20 32.8H21C21 22.8603 22.2909 15.4817 24.8189 10.6051C26.0791 8.17413 27.6396 6.37859 29.4892 5.18931C31.3365 4.00148 33.5005 3.4 36 3.4V2.4ZM20 32.8V40.7H21V32.8H20ZM20 40.7C20 50.2052 21.3707 57.7273 24.1539 63.2258L25.0461 62.7742C22.3627 57.4727 21 50.1281 21 40.7H20ZM24.155 63.228C25.5516 65.9531 27.2956 68.0262 29.3992 69.4171C31.5061 70.81 33.9458 71.5 36.7 71.5V70.5C34.1209 70.5 31.8773 69.8567 29.9508 68.5829C28.0211 67.3071 26.3817 65.3802 25.045 62.772L24.155 63.228ZM36.7 71.5C40.5462 71.5 44.1857 69.6248 47.6136 65.9932C51.0369 62.3665 54.2814 56.957 57.3594 49.7975L56.4407 49.4025C53.3852 56.5097 50.1964 61.8002 46.8864 65.3068C43.581 68.8086 40.1872 70.5 36.7 70.5V71.5ZM56.9 50.1H58.7V49.1H56.9V50.1ZM58.2002 49.5843L57.5002 71.8843L58.4998 71.9157L59.1998 49.6157L58.2002 49.5843ZM58 71.4H56.9V72.4H58V71.4ZM57.339 71.6606C56.9317 70.914 56.5264 70.3408 56.1124 70.0096L55.4877 70.7904C55.7403 70.9925 56.0683 71.4193 56.4611 72.1394L57.339 71.6606ZM56.1536 70.0464C55.6934 69.5863 55.0437 69.4 54.3 69.4V70.4C54.8896 70.4 55.24 70.5471 55.4465 70.7536L56.1536 70.0464ZM54.3 69.4C54.1006 69.4 53.7981 69.4414 53.425 69.5077C53.0401 69.5761 52.5448 69.6778 51.9415 69.8119C50.7343 70.0802 49.0787 70.4816 46.9769 71.0154L47.2231 71.9846C49.3213 71.4517 50.9657 71.0532 52.1585 70.7881C52.7552 70.6555 53.2349 70.5572 53.6 70.4923C53.9769 70.4253 54.1994 70.4 54.3 70.4V69.4ZM46.9842 71.0136C42.8223 72.0045 38.5945 72.5 34.3 72.5V73.5C38.6722 73.5 42.9777 72.9955 47.2158 71.9864L46.9842 71.0136ZM34.3 72.5C23.5239 72.5 15.2309 69.5932 9.34956 63.8425L8.65044 64.5575C14.7691 70.5402 23.3428 73.5 34.3 73.5V72.5ZM9.35155 63.8445C3.54628 58.1044 0.6 49.4548 0.6 37.8H-0.4C-0.4 49.6118 2.58705 58.5622 8.64845 64.5555L9.35155 63.8445ZM0.6 37.8C0.6 26.0865 3.67574 17.1275 9.75912 10.8479L9.04088 10.1521C2.72426 16.6725 -0.4 25.9135 -0.4 37.8H0.6ZM9.75726 10.8498C15.9134 4.56271 24.1755 1.4 34.6 1.4V0.399997C23.9578 0.399997 15.42 3.63729 9.04275 10.1502L9.75726 10.8498ZM34.6 1.4C38.6224 1.4 42.5443 1.92744 46.367 2.98199L46.633 2.018C42.7224 0.93922 38.711 0.399997 34.6 0.399997V1.4ZM46.3768 2.98458C48.3457 3.48515 49.9105 3.86178 51.0688 4.11359C52.2035 4.36026 53.002 4.5 53.4 4.5V3.5C53.1313 3.5 52.4465 3.38974 51.2812 3.13641C50.1395 2.88821 48.5876 2.51484 46.6232 2.01541L46.3768 2.98458ZM53.4 4.5C54.1201 4.5 54.7527 4.35817 55.2124 3.99043L54.5877 3.20956C54.3807 3.37516 54.0132 3.5 53.4 3.5V4.5ZM55.2536 3.95355C55.6371 3.57002 56.0308 2.98769 56.439 2.23942L55.5611 1.76057C55.1692 2.47898 54.8296 2.96331 54.5465 3.24645L55.2536 3.95355ZM56 2.5H57.1V1.5H56V2.5ZM56.6003 2.01842L57.4003 23.7184L58.3997 23.6816L57.5997 1.98157L56.6003 2.01842ZM57.9 23.2H56.1V24.2H57.9V23.2ZM56.5567 23.4965C53.5456 16.7382 50.42 11.5522 47.1706 7.96436L46.4294 8.63564C49.58 12.1145 52.6544 17.1951 55.6433 23.9035L56.5567 23.4965ZM47.1772 7.97174C43.967 4.28351 40.2369 2.4 36 2.4V3.4C39.8965 3.4 43.3663 5.11648 46.4228 8.62826L47.1772 7.97174ZM92.943 32L93.3749 32.2519L93.3749 32.2519L92.943 32ZM90.143 70.2H89.643V70.7H90.143V70.2ZM97.243 70.2H97.743V69.7H97.243V70.2ZM97.243 72V72.5H97.743V72H97.243ZM66.043 72H65.543V72.5H66.043V72ZM66.043 70.2V69.7H65.543V70.2H66.043ZM71.543 70.2V70.7H72.043V70.2H71.543ZM71.543 26.2H72.043V25.7H71.543V26.2ZM66.043 26.2H65.543V26.7H66.043V26.2ZM66.043 24.4V23.9H65.543V24.4H66.043ZM90.143 24.4H90.643V23.9H90.143V24.4ZM90.143 34H89.643L90.6275 34.1235L90.143 34ZM95.143 26.2L95.4378 26.604L95.4447 26.5987L95.143 26.2ZM111.143 26.1L110.802 26.4659L110.809 26.472L110.816 26.4778L111.143 26.1ZM111.943 41L111.561 40.677L111.561 40.677L111.943 41ZM98.443 40.6L98.0333 40.8868L98.0398 40.8957L98.443 40.6ZM97.943 32.3V31.8H97.5716L97.4643 32.1555L97.943 32.3ZM101.543 32.3V32.8H101.855L101.992 32.5201L101.543 32.3ZM99.443 26.7C96.7193 26.7 94.4186 28.4781 92.5111 31.7481L93.3749 32.2519C95.2007 29.1219 97.2333 27.7 99.443 27.7V26.7ZM92.5111 31.7481C90.5921 35.0378 89.643 38.9282 89.643 43.4H90.643C90.643 39.0718 91.5605 35.3622 93.3749 32.2519L92.5111 31.7481ZM89.643 43.4V70.2H90.643V43.4H89.643ZM90.143 70.7H97.243V69.7H90.143V70.7ZM96.743 70.2V72H97.743V70.2H96.743ZM97.243 71.5H66.043V72.5H97.243V71.5ZM66.543 72V70.2H65.543V72H66.543ZM66.043 70.7H71.543V69.7H66.043V70.7ZM72.043 70.2V26.2H71.043V70.2H72.043ZM71.543 25.7H66.043V26.7H71.543V25.7ZM66.543 26.2V24.4H65.543V26.2H66.543ZM66.043 24.9H90.143V23.9H66.043V24.9ZM89.643 24.4V34H90.643V24.4H89.643ZM90.6275 34.1235C91.4699 30.8185 93.0788 28.3253 95.4377 26.6039L94.8482 25.7961C92.2738 27.6747 90.5493 30.3815 89.6585 33.8765L90.6275 34.1235ZM95.4447 26.5987C97.8233 24.7987 100.517 23.9 103.543 23.9V22.9C100.302 22.9 97.396 23.868 94.8413 25.8013L95.4447 26.5987ZM103.543 23.9C106.575 23.9 108.978 24.7678 110.802 26.4659L111.484 25.7341C109.441 23.8322 106.778 22.9 103.543 22.9V23.9ZM110.816 26.4778C112.681 28.0945 113.643 30.4415 113.643 33.6H114.643C114.643 30.2252 113.605 27.5722 111.47 25.7222L110.816 26.4778ZM113.643 33.6C113.643 36.7296 112.925 39.0648 111.561 40.677L112.325 41.323C113.894 39.4685 114.643 36.8704 114.643 33.6H113.643ZM111.561 40.677C110.22 42.2623 108.117 43.1 105.143 43.1V44.1C108.302 44.1 110.733 43.2044 112.325 41.323L111.561 40.677ZM105.143 43.1C102.265 43.1 100.198 42.1483 98.8462 40.3043L98.0398 40.8957C99.6208 43.0517 102.021 44.1 105.143 44.1V43.1ZM98.8526 40.3133C97.5781 38.4925 97.376 35.908 98.4216 32.4445L97.4643 32.1555C96.3766 35.7586 96.5079 38.7075 98.0334 40.8867L98.8526 40.3133ZM97.943 32.8H101.543V31.8H97.943V32.8ZM101.992 32.5201C102.42 31.6465 102.708 30.8585 102.84 30.1619C102.972 29.4667 102.955 28.8291 102.73 28.2846C102.259 27.1398 101.03 26.7 99.443 26.7V27.7C100.923 27.7 101.577 28.1102 101.806 28.6654C101.931 28.9709 101.968 29.3958 101.858 29.9756C101.748 30.554 101.499 31.2535 101.094 32.0799L101.992 32.5201ZM121.966 66.4L121.605 66.7454L121.61 66.7508L121.966 66.4ZM122.766 29.7L122.44 29.3215L122.437 29.3237L122.766 29.7ZM163.066 46.2V46.7H163.547L163.566 46.2197L163.066 46.2ZM134.866 46.2V45.7H134.366V46.2H134.866ZM137.366 64.9L136.919 65.1236L136.919 65.1236L137.366 64.9ZM161.266 57.5L161.349 57.0068L160.91 56.9337L160.786 57.3606L161.266 57.5ZM163.066 57.8L163.55 57.9276L163.69 57.397L163.149 57.3068L163.066 57.8ZM156.166 69L155.854 68.6095L155.85 68.6127L156.166 69ZM134.966 44.2H134.466V44.7H134.966V44.2ZM145.266 44.2V44.7H145.766V44.2H145.266ZM144.266 28.3L143.787 28.4437L143.79 28.4534L143.794 28.463L144.266 28.3ZM136.266 28.5L135.808 28.2996L135.805 28.3066L136.266 28.5ZM141.366 72.5C132.847 72.5 126.53 70.3213 122.323 66.0492L121.61 66.7508C126.069 71.2787 132.686 73.5 141.366 73.5V72.5ZM122.328 66.0546C118.173 61.7045 116.066 55.6747 116.066 47.9H115.066C115.066 55.8586 117.227 62.1622 121.605 66.7454L122.328 66.0546ZM116.066 47.9C116.066 40.0728 118.43 34.1589 123.096 30.0763L122.437 29.3237C117.503 33.6411 115.066 39.8605 115.066 47.9H116.066ZM123.093 30.0785C127.855 25.9693 133.899 23.9 141.266 23.9V22.9C133.7 22.9 127.412 25.0307 122.44 29.3215L123.093 30.0785ZM141.266 23.9C148.757 23.9 154.201 25.7808 157.705 29.4455C161.21 33.1108 162.864 38.6548 162.567 46.1803L163.566 46.2197C163.869 38.5452 162.19 32.6892 158.428 28.7545C154.665 24.8192 148.909 22.9 141.266 22.9V23.9ZM163.066 45.7H134.866V46.7H163.066V45.7ZM134.366 46.2V50.1H135.366V46.2H134.366ZM134.366 50.1C134.366 56.6608 135.201 61.6868 136.919 65.1236L137.814 64.6764C136.199 61.4466 135.366 56.6059 135.366 50.1H134.366ZM136.919 65.1236C137.791 66.8678 138.997 68.1957 140.542 69.0835C142.084 69.9696 143.933 70.4 146.066 70.4V69.4C144.067 69.4 142.399 68.9971 141.041 68.2165C139.685 67.4376 138.608 66.2656 137.814 64.6764L136.919 65.1236ZM146.066 70.4C150.026 70.4 153.344 69.3397 155.982 67.1874C158.616 65.0392 160.527 61.8397 161.747 57.6394L160.786 57.3606C159.606 61.427 157.784 64.4275 155.35 66.4126C152.922 68.3937 149.84 69.4 146.066 69.4V70.4ZM161.184 57.9932L162.984 58.2932L163.149 57.3068L161.349 57.0068L161.184 57.9932ZM162.583 57.6724C161.339 62.3862 159.091 66.0204 155.854 68.6096L156.479 69.3904C159.909 66.6463 162.26 62.8138 163.55 57.9276L162.583 57.6724ZM155.85 68.6127C152.711 71.1753 147.913 72.5 141.366 72.5V73.5C148.02 73.5 153.088 72.158 156.483 69.3873L155.85 68.6127ZM134.966 44.7H145.266V43.7H134.966V44.7ZM145.766 44.2V39.3H144.766V44.2H145.766ZM145.766 39.3C145.766 33.9069 145.437 30.1601 144.739 28.137L143.794 28.463C144.429 30.3066 144.766 33.8931 144.766 39.3H145.766ZM144.745 28.1563C144.424 27.0868 143.911 26.2375 143.176 25.6576C142.438 25.0748 141.522 24.8 140.466 24.8V25.8C141.344 25.8 142.028 26.0252 142.557 26.4424C143.089 26.8625 143.508 27.5132 143.787 28.4437L144.745 28.1563ZM140.466 24.8C139.431 24.8 138.506 25.0984 137.713 25.7023C136.927 26.3011 136.298 27.1793 135.808 28.2996L136.724 28.7004C137.168 27.6873 137.705 26.9655 138.319 26.4977C138.927 26.0349 139.635 25.8 140.466 25.8V24.8ZM135.805 28.3066C134.896 30.4742 134.466 34.1642 134.466 39.3H135.466C135.466 34.1691 135.903 30.6591 136.728 28.6934L135.805 28.3066ZM134.466 39.3V44.2H135.466V39.3H134.466ZM193.529 48.5V49H194.029V48.5H193.529ZM192.429 28.1L191.95 28.245L191.953 28.2538L191.956 28.2625L192.429 28.1ZM185.129 25.8L185.399 26.2206L185.406 26.216L185.129 25.8ZM184.329 31.7L183.857 31.8664L183.975 32.2H184.329V31.7ZM186.829 31.7L187.296 31.522L187.173 31.2H186.829V31.7ZM185.129 41.9L185.451 42.283L185.459 42.2754L185.129 41.9ZM207.529 27.5L207.192 27.8697L207.201 27.8773L207.529 27.5ZM219.029 57.5L219.062 57.0011L218.559 56.9676L218.53 57.4709L219.029 57.5ZM220.529 57.6L221.028 57.6227L221.051 57.1337L220.562 57.1011L220.529 57.6ZM217.229 69.7L217.604 70.0301L217.604 70.0301L217.229 69.7ZM193.929 65.6L194.415 65.4818L194.01 63.8181L193.456 65.4382L193.929 65.6ZM190.029 71.2L190.314 71.6111L190.314 71.6111L190.029 71.2ZM173.229 51.2L173.439 51.6535L173.443 51.6519L173.229 51.2ZM187.129 67.5L186.655 67.6581L186.659 67.6721L186.665 67.6857L187.129 67.5ZM192.129 66.5L191.689 66.2629L191.685 66.2693L192.129 66.5ZM193.529 50.1H194.029V49.6H193.529V50.1ZM190.629 49H193.529V48H190.629V49ZM194.029 48.5V40.8H193.029V48.5H194.029ZM194.029 40.8C194.029 34.4775 193.666 30.1617 192.902 27.9375L191.956 28.2625C192.658 30.305 193.029 34.4559 193.029 40.8H194.029ZM192.907 27.955C192.555 26.7912 192.011 25.8696 191.247 25.2393C190.477 24.6041 189.526 24.3 188.429 24.3V25.3C189.332 25.3 190.047 25.5459 190.611 26.0107C191.18 26.4804 191.636 27.2088 191.95 28.245L192.907 27.955ZM188.429 24.3C187.13 24.3 185.934 24.6626 184.852 25.384L185.406 26.216C186.324 25.604 187.328 25.3 188.429 25.3V24.3ZM184.859 25.3794C183.778 26.0738 183.229 27.101 183.229 28.4H184.229C184.229 27.4324 184.613 26.7262 185.399 26.2206L184.859 25.3794ZM183.229 28.4C183.229 29.53 183.441 30.6863 183.857 31.8664L184.8 31.5336C184.417 30.447 184.229 29.4033 184.229 28.4H183.229ZM184.329 32.2H186.829V31.2H184.329V32.2ZM186.362 31.878C186.867 33.2056 187.129 34.8417 187.129 36.8H188.129C188.129 34.7583 187.857 32.9944 187.296 31.522L186.362 31.878ZM187.129 36.8C187.129 38.5676 186.375 40.1373 184.799 41.5246L185.459 42.2754C187.216 40.7294 188.129 38.8991 188.129 36.8H187.129ZM184.807 41.5171C183.245 42.8294 181.265 43.5 178.829 43.5V44.5C181.46 44.5 183.679 43.7706 185.451 42.2828L184.807 41.5171ZM178.829 43.5C176.035 43.5 174.032 42.8257 172.726 41.5652C171.423 40.308 170.729 38.385 170.729 35.7H169.729C169.729 38.5483 170.468 40.7753 172.032 42.2848C173.592 43.791 175.89 44.5 178.829 44.5V43.5ZM170.729 35.7C170.729 31.774 172.38 28.8645 175.708 26.9059C179.077 24.9231 184.195 23.9 191.129 23.9V22.9C184.13 22.9 178.798 23.9269 175.2 26.0441C171.562 28.1855 169.729 31.426 169.729 35.7H170.729ZM191.129 23.9C199.041 23.9 204.339 25.2703 207.192 27.8696L207.866 27.1304C204.719 24.263 199.084 22.9 191.129 22.9V23.9ZM207.201 27.8773C210.098 30.3969 211.629 35.1397 211.629 42.3H212.629C212.629 35.0603 211.093 29.9364 207.857 27.1227L207.201 27.8773ZM211.629 42.3V62.6H212.629V42.3H211.629ZM211.629 62.6C211.629 64.3634 211.872 65.7658 212.417 66.7435C212.694 67.24 213.054 67.6352 213.504 67.9042C213.954 68.1736 214.469 68.3 215.029 68.3V67.3C214.623 67.3 214.291 67.2098 214.017 67.0458C213.742 66.8815 213.497 66.6267 213.291 66.2565C212.869 65.5009 212.629 64.3032 212.629 62.6H211.629ZM215.029 68.3C216.483 68.3 217.506 67.1795 218.195 65.406C218.89 63.6153 219.327 60.9776 219.528 57.5291L218.53 57.4709C218.331 60.8891 217.901 63.4013 217.263 65.044C216.618 66.7038 215.841 67.3 215.029 67.3V68.3ZM218.996 57.9989L220.496 58.0989L220.562 57.1011L219.062 57.0011L218.996 57.9989ZM220.029 57.5773C219.764 63.4265 218.666 67.3069 216.853 69.3699L217.604 70.0301C219.658 67.6931 220.761 63.5068 221.028 57.6227L220.029 57.5773ZM216.853 69.3699C215.054 71.4172 212.058 72.5 207.729 72.5V73.5C212.2 73.5 215.537 72.3828 217.604 70.0301L216.853 69.3699ZM207.729 72.5C203.771 72.5 200.714 71.8884 198.515 70.7094C196.336 69.541 194.98 67.8061 194.415 65.4818L193.443 65.7182C194.078 68.3273 195.621 70.2923 198.043 71.5906C200.444 72.8783 203.687 73.5 207.729 73.5V72.5ZM193.456 65.4382C192.614 67.8979 191.369 69.6644 189.744 70.7889L190.314 71.6111C192.156 70.3356 193.51 68.3688 194.402 65.7618L193.456 65.4382ZM189.744 70.7889C188.13 71.9063 185.715 72.5 182.429 72.5V73.5C185.809 73.5 188.461 72.8937 190.314 71.6111L189.744 70.7889ZM182.429 72.5C177.551 72.5 173.985 71.5009 171.645 69.5879C169.325 67.6906 168.129 64.8267 168.129 60.9H167.129C167.129 65.04 168.4 68.226 171.012 70.3621C173.606 72.4824 177.44 73.5 182.429 73.5V72.5ZM168.129 60.9C168.129 58.598 168.583 56.6979 169.462 55.175C170.339 53.6565 171.656 52.4815 173.439 51.6535L173.018 50.7465C171.068 51.6518 169.586 52.9601 168.596 54.675C167.608 56.3855 167.129 58.4687 167.129 60.9H168.129ZM173.443 51.6519C177.141 49.9003 182.85 49 190.629 49V48C182.808 48 176.917 48.8997 173.015 50.7481L173.443 51.6519ZM186.129 60.8C186.129 62.5398 186.171 63.9784 186.255 65.1122C186.339 66.2347 186.467 67.0956 186.655 67.6581L187.603 67.3419C187.457 66.9044 187.335 66.1486 187.253 65.0378C187.17 63.9383 187.129 62.5268 187.129 60.8H186.129ZM186.665 67.6857C186.891 68.2522 187.218 68.7138 187.663 69.0319C188.111 69.3519 188.642 69.5 189.229 69.5V68.5C188.816 68.5 188.497 68.3981 188.245 68.2181C187.99 68.0362 187.767 67.7478 187.593 67.3143L186.665 67.6857ZM189.229 69.5C190.593 69.5 191.687 68.433 192.573 66.7307L191.685 66.2693C190.837 67.9003 189.998 68.5 189.229 68.5V69.5ZM192.569 66.737C193.557 64.9025 194.029 62.4431 194.029 59.4H193.029C193.029 62.3569 192.568 64.6308 191.689 66.2629L192.569 66.737ZM194.029 59.4V50.1H193.029V59.4H194.029ZM193.529 49.6H192.829V50.6H193.529V49.6ZM192.829 49.6C190.621 49.6 188.905 50.4212 187.766 52.0935C186.65 53.7314 186.129 56.1255 186.129 59.2H187.129C187.129 56.2078 187.641 54.0519 188.592 52.6565C189.519 51.2955 190.903 50.6 192.829 50.6V49.6ZM186.129 59.2V60.8H187.129V59.2H186.129ZM225.512 44.2H225.012V44.7H225.512V44.2ZM225.512 41.2V40.7H225.012V41.2H225.512ZM250.712 41.2H251.212V40.7H250.712V41.2ZM250.712 44.2V44.7H251.212V44.2H250.712ZM226.012 44.2V41.2H225.012V44.2H226.012ZM225.512 41.7H250.712V40.7H225.512V41.7ZM250.212 41.2V44.2H251.212V41.2H250.212ZM250.712 43.7H225.512V44.7H250.712V43.7ZM109.813 126.2H110.313V125.7H109.813V126.2ZM104.313 126.2H103.813V126.7H104.313V126.2ZM104.313 124.4V123.9H103.813V124.4H104.313ZM109.813 124.4V124.9H110.313V124.4H109.813ZM109.813 111.5L109.692 111.015L109.313 111.109V111.5H109.813ZM128.413 106.9H128.913V106.261L128.292 106.415L128.413 106.9ZM128.413 124.4H127.913V124.9H128.413V124.4ZM141.413 124.4H141.913V123.9H141.413V124.4ZM141.413 126.2V126.7H141.913V126.2H141.413ZM128.413 126.2V125.7H127.913V126.2H128.413ZM129.313 166.8L128.85 166.989L128.853 166.998L128.857 167.007L129.313 166.8ZM138.513 166L138.116 165.696L138.109 165.704L138.513 166ZM141.513 157.8L141.571 157.303L141.083 157.246L141.017 157.733L141.513 157.8ZM143.213 158L143.709 158.058L143.767 157.562L143.271 157.503L143.213 158ZM138.813 169L139.184 169.335L139.188 169.33L138.813 169ZM114.213 169.7L114.513 169.3L114.513 169.3L114.213 169.7ZM110.313 157.7V126.2H109.313V157.7H110.313ZM109.813 125.7H104.313V126.7H109.813V125.7ZM104.813 126.2V124.4H103.813V126.2H104.813ZM104.313 124.9H109.813V123.9H104.313V124.9ZM110.313 124.4V111.5H109.313V124.4H110.313ZM109.933 111.985L128.533 107.385L128.292 106.415L109.692 111.015L109.933 111.985ZM127.913 106.9V124.4H128.913V106.9H127.913ZM128.413 124.9H141.413V123.9H128.413V124.9ZM140.913 124.4V126.2H141.913V124.4H140.913ZM141.413 125.7H128.413V126.7H141.413V125.7ZM127.913 126.2V159.9H128.913V126.2H127.913ZM127.913 159.9C127.913 163.047 128.211 165.429 128.85 166.989L129.775 166.611C129.214 165.238 128.913 163.019 128.913 159.9H127.913ZM128.857 167.007C129.232 167.832 129.805 168.466 130.572 168.888C131.332 169.306 132.254 169.5 133.313 169.5V168.5C132.371 168.5 131.627 168.327 131.053 168.012C130.487 167.7 130.059 167.234 129.768 166.593L128.857 167.007ZM133.313 169.5C135.51 169.5 137.38 168.39 138.916 166.296L138.109 165.704C136.712 167.61 135.115 168.5 133.313 168.5V169.5ZM138.909 166.304C140.512 164.213 141.534 161.388 142.008 157.867L141.017 157.733C140.558 161.145 139.579 163.787 138.116 165.696L138.909 166.304ZM141.454 158.297L143.154 158.497L143.271 157.503L141.571 157.303L141.454 158.297ZM142.716 157.942C142.191 162.469 140.753 166.032 138.437 168.67L139.188 169.33C141.672 166.502 143.167 162.731 143.709 158.058L142.716 157.942ZM138.441 168.666C136.177 171.181 132.38 172.5 126.913 172.5V173.5C132.511 173.5 136.648 172.152 139.184 169.334L138.441 168.666ZM126.913 172.5C121.435 172.5 117.325 171.41 114.513 169.3L113.913 170.1C116.966 172.39 121.323 173.5 126.913 173.5V172.5ZM114.513 169.3C111.764 167.239 110.313 163.435 110.313 157.7H109.313C109.313 163.565 110.794 167.761 113.913 170.1L114.513 169.3ZM151.268 114.8L150.88 115.116L150.887 115.124L151.268 114.8ZM151.468 101.5L151.107 101.153L151.101 101.161L151.468 101.5ZM166.568 101.3L166.229 101.667L166.237 101.674L166.568 101.3ZM166.668 114.9L166.308 114.553L166.308 114.553L166.668 114.9ZM143.768 124.4V123.9H143.268V124.4H143.768ZM168.268 124.4H168.768V123.9H168.268V124.4ZM168.268 170.2H167.768V170.7H168.268V170.2ZM173.868 170.2H174.368V169.7H173.868V170.2ZM173.868 172V172.5H174.368V172H173.868ZM144.168 172H143.668V172.5H144.168V172ZM144.168 170.2V169.7H143.668V170.2H144.168ZM149.668 170.2V170.7H150.168V170.2H149.668ZM149.668 126.2H150.168V125.7H149.668V126.2ZM143.768 126.2H143.268V126.7H143.768V126.2ZM158.868 117C155.408 117 153.048 116.118 151.649 114.476L150.887 115.124C152.555 117.082 155.262 118 158.868 118V117ZM151.656 114.484C150.272 112.786 149.568 110.67 149.568 108.1H148.568C148.568 110.864 149.33 113.214 150.88 115.116L151.656 114.484ZM149.568 108.1C149.568 105.541 150.332 103.468 151.835 101.839L151.101 101.161C149.404 102.999 148.568 105.325 148.568 108.1H149.568ZM151.828 101.847C153.369 100.244 155.717 99.4 158.968 99.4V98.4C155.552 98.4 152.9 99.2891 151.108 101.153L151.828 101.847ZM158.968 99.4C162.227 99.4 164.62 100.182 166.229 101.667L166.907 100.933C165.049 99.2177 162.375 98.4 158.968 98.4V99.4ZM166.237 101.674C167.835 103.089 168.668 105.169 168.668 108H169.668C169.668 104.965 168.767 102.578 166.899 100.925L166.237 101.674ZM168.668 108C168.668 110.764 167.868 112.931 166.308 114.553L167.028 115.247C168.801 113.403 169.668 110.969 169.668 108H168.668ZM166.308 114.553C164.772 116.151 162.329 117 158.868 117V118C162.473 118 165.231 117.116 167.028 115.247L166.308 114.553ZM143.768 124.9H168.268V123.9H143.768V124.9ZM167.768 124.4V170.2H168.768V124.4H167.768ZM168.268 170.7H173.868V169.7H168.268V170.7ZM173.368 170.2V172H174.368V170.2H173.368ZM173.868 171.5H144.168V172.5H173.868V171.5ZM144.668 172V170.2H143.668V172H144.668ZM144.168 170.7H149.668V169.7H144.168V170.7ZM150.168 170.2V126.2H149.168V170.2H150.168ZM149.668 125.7H143.768V126.7H149.668V125.7ZM144.268 126.2V124.4H143.268V126.2H144.268ZM171.879 126.2H171.379V126.7H171.879V126.2ZM171.879 124.4V123.9H171.379V124.4H171.879ZM201.779 124.4H202.279V123.9H201.779V124.4ZM201.779 126.2V126.7H202.279V126.2H201.779ZM195.479 126.2V125.7H194.767L195.009 126.37L195.479 126.2ZM207.479 159.4L207.009 159.57L207.504 160.94L207.954 159.555L207.479 159.4ZM218.279 126.2L218.754 126.355L218.967 125.7H218.279V126.2ZM211.579 126.2H211.079V126.7H211.579V126.2ZM211.579 124.4V123.9H211.079V124.4H211.579ZM225.079 124.4H225.579V123.9H225.079V124.4ZM225.079 126.2V126.7H225.579V126.2H225.079ZM220.679 126.2V125.7H220.315L220.203 126.046L220.679 126.2ZM205.879 172V172.5H206.243L206.355 172.154L205.879 172ZM194.479 172L194.015 172.187L194.142 172.5H194.479V172ZM175.979 126.2L176.443 126.013L176.316 125.7H175.979V126.2ZM172.379 126.2V124.4H171.379V126.2H172.379ZM171.879 124.9H201.779V123.9H171.879V124.9ZM201.279 124.4V126.2H202.279V124.4H201.279ZM201.779 125.7H195.479V126.7H201.779V125.7ZM195.009 126.37L207.009 159.57L207.949 159.23L195.949 126.03L195.009 126.37ZM207.954 159.555L218.754 126.355L217.803 126.045L207.003 159.245L207.954 159.555ZM218.279 125.7H211.579V126.7H218.279V125.7ZM212.079 126.2V124.4H211.079V126.2H212.079ZM211.579 124.9H225.079V123.9H211.579V124.9ZM224.579 124.4V126.2H225.579V124.4H224.579ZM225.079 125.7H220.679V126.7H225.079V125.7ZM220.203 126.046L205.403 171.846L206.355 172.154L221.155 126.354L220.203 126.046ZM205.879 171.5H194.479V172.5H205.879V171.5ZM194.943 171.813L176.443 126.013L175.515 126.387L194.015 172.187L194.943 171.813ZM175.979 125.7H171.879V126.7H175.979V125.7ZM233.202 114.8L232.814 115.116L232.821 115.124L233.202 114.8ZM233.402 101.5L233.041 101.153L233.034 101.161L233.402 101.5ZM248.502 101.3L248.162 101.667L248.17 101.674L248.502 101.3ZM248.602 114.9L248.241 114.553L248.241 114.553L248.602 114.9ZM225.702 124.4V123.9H225.202V124.4H225.702ZM250.202 124.4H250.702V123.9H250.202V124.4ZM250.202 170.2H249.702V170.7H250.202V170.2ZM255.802 170.2H256.302V169.7H255.802V170.2ZM255.802 172V172.5H256.302V172H255.802ZM226.102 172H225.602V172.5H226.102V172ZM226.102 170.2V169.7H225.602V170.2H226.102ZM231.602 170.2V170.7H232.102V170.2H231.602ZM231.602 126.2H232.102V125.7H231.602V126.2ZM225.702 126.2H225.202V126.7H225.702V126.2ZM240.802 117C237.341 117 234.981 116.118 233.582 114.476L232.821 115.124C234.488 117.082 237.195 118 240.802 118V117ZM233.589 114.484C232.206 112.786 231.502 110.67 231.502 108.1H230.502C230.502 110.864 231.264 113.214 232.814 115.116L233.589 114.484ZM231.502 108.1C231.502 105.541 232.265 103.468 233.769 101.839L233.034 101.161C231.338 102.999 230.502 105.325 230.502 108.1H231.502ZM233.762 101.847C235.303 100.244 237.65 99.4 240.902 99.4V98.4C237.486 98.4 234.834 99.2891 233.041 101.153L233.762 101.847ZM240.902 99.4C244.161 99.4 246.554 100.182 248.162 101.667L248.841 100.933C246.983 99.2177 244.309 98.4 240.902 98.4V99.4ZM248.17 101.674C249.769 103.089 250.602 105.169 250.602 108H251.602C251.602 104.965 250.701 102.578 248.833 100.925L248.17 101.674ZM250.602 108C250.602 110.764 249.801 112.931 248.241 114.553L248.962 115.247C250.735 113.403 251.602 110.969 251.602 108H250.602ZM248.241 114.553C246.705 116.151 244.263 117 240.802 117V118C244.407 118 247.164 117.116 248.962 115.247L248.241 114.553ZM225.702 124.9H250.202V123.9H225.702V124.9ZM249.702 124.4V170.2H250.702V124.4H249.702ZM250.202 170.7H255.802V169.7H250.202V170.7ZM255.302 170.2V172H256.302V170.2H255.302ZM255.802 171.5H226.102V172.5H255.802V171.5ZM226.602 172V170.2H225.602V172H226.602ZM226.102 170.7H231.602V169.7H226.102V170.7ZM232.102 170.2V126.2H231.102V170.2H232.102ZM231.602 125.7H225.702V126.7H231.602V125.7ZM226.202 126.2V124.4H225.202V126.2H226.202ZM262.84 126.2H263.34V125.7H262.84V126.2ZM257.34 126.2H256.84V126.7H257.34V126.2ZM257.34 124.4V123.9H256.84V124.4H257.34ZM262.84 124.4V124.9H263.34V124.4H262.84ZM262.84 111.5L262.72 111.015L262.34 111.109V111.5H262.84ZM281.44 106.9H281.94V106.261L281.32 106.415L281.44 106.9ZM281.44 124.4H280.94V124.9H281.44V124.4ZM294.44 124.4H294.94V123.9H294.44V124.4ZM294.44 126.2V126.7H294.94V126.2H294.44ZM281.44 126.2V125.7H280.94V126.2H281.44ZM282.34 166.8L281.877 166.989L281.881 166.998L281.885 167.007L282.34 166.8ZM291.54 166L291.143 165.696L291.137 165.704L291.54 166ZM294.54 157.8L294.598 157.303L294.11 157.246L294.044 157.733L294.54 157.8ZM296.24 158L296.737 158.058L296.794 157.562L296.298 157.503L296.24 158ZM291.84 169L292.212 169.335L292.216 169.33L291.84 169ZM267.24 169.7L267.54 169.3L267.54 169.3L267.24 169.7ZM263.34 157.7V126.2H262.34V157.7H263.34ZM262.84 125.7H257.34V126.7H262.84V125.7ZM257.84 126.2V124.4H256.84V126.2H257.84ZM257.34 124.9H262.84V123.9H257.34V124.9ZM263.34 124.4V111.5H262.34V124.4H263.34ZM262.96 111.985L281.56 107.385L281.32 106.415L262.72 111.015L262.96 111.985ZM280.94 106.9V124.4H281.94V106.9H280.94ZM281.44 124.9H294.44V123.9H281.44V124.9ZM293.94 124.4V126.2H294.94V124.4H293.94ZM294.44 125.7H281.44V126.7H294.44V125.7ZM280.94 126.2V159.9H281.94V126.2H280.94ZM280.94 159.9C280.94 163.047 281.239 165.429 281.877 166.989L282.803 166.611C282.241 165.238 281.94 163.019 281.94 159.9H280.94ZM281.885 167.007C282.26 167.832 282.832 168.466 283.599 168.888C284.359 169.306 285.281 169.5 286.34 169.5V168.5C285.398 168.5 284.654 168.327 284.081 168.012C283.514 167.7 283.087 167.234 282.795 166.593L281.885 167.007ZM286.34 169.5C288.537 169.5 290.407 168.39 291.943 166.296L291.137 165.704C289.739 167.61 288.142 168.5 286.34 168.5V169.5ZM291.937 166.304C293.54 164.213 294.561 161.388 295.035 157.867L294.044 157.733C293.585 161.145 292.607 163.787 291.143 165.696L291.937 166.304ZM294.481 158.297L296.181 158.497L296.298 157.503L294.598 157.303L294.481 158.297ZM295.743 157.942C295.218 162.469 293.781 166.032 291.464 168.67L292.216 169.33C294.699 166.502 296.195 162.731 296.737 158.058L295.743 157.942ZM291.468 168.666C289.204 171.181 285.408 172.5 279.94 172.5V173.5C285.539 173.5 289.675 172.152 292.211 169.334L291.468 168.666ZM279.94 172.5C274.462 172.5 270.353 171.41 267.54 169.3L266.94 170.1C269.994 172.39 274.351 173.5 279.94 173.5V172.5ZM267.54 169.3C264.792 167.239 263.34 163.435 263.34 157.7H262.34C262.34 163.565 263.821 167.761 266.94 170.1L267.54 169.3ZM295.719 126.2H295.219V126.7H295.719V126.2ZM295.719 124.4V123.9H295.219V124.4H295.719ZM324.719 124.4H325.219V123.9H324.719V124.4ZM324.719 126.2V126.7H325.219V126.2H324.719ZM319.319 126.2V125.7H318.628L318.844 126.356L319.319 126.2ZM330.219 159.4L329.744 159.556L330.204 160.958L330.691 159.565L330.219 159.4ZM341.819 126.2L342.291 126.365L342.523 125.7H341.819V126.2ZM335.119 126.2H334.619V126.7H335.119V126.2ZM335.119 124.4V123.9H334.619V124.4H335.119ZM349.219 124.4H349.719V123.9H349.219V124.4ZM349.219 126.2V126.7H349.719V126.2H349.219ZM344.219 126.2V125.7H343.863L343.746 126.036L344.219 126.2ZM325.519 180.1L325.991 180.266L325.991 180.264L325.519 180.1ZM318.119 193.2L317.784 192.829L317.779 192.833L318.119 193.2ZM298.819 194.3L299.13 193.908L299.13 193.908L298.819 194.3ZM297.619 181L297.265 180.646L297.265 180.646L297.619 181ZM311.119 189.3V189.8H311.496L311.6 189.437L311.119 189.3ZM307.619 189.3V188.8H307.263L307.147 189.136L307.619 189.3ZM307.419 193.1L307.883 192.914L307.883 192.914L307.419 193.1ZM317.419 190.5L317.028 190.188L317.025 190.192L317.419 190.5ZM323.519 178.2L323.048 178.033L323.047 178.035L323.519 178.2ZM325.719 172L326.19 172.167L326.427 171.5H325.719V172ZM316.919 172L316.45 172.175L316.572 172.5H316.919V172ZM299.819 126.2L300.287 126.025L300.166 125.7H299.819V126.2ZM296.219 126.2V124.4H295.219V126.2H296.219ZM295.719 124.9H324.719V123.9H295.719V124.9ZM324.219 124.4V126.2H325.219V124.4H324.219ZM324.719 125.7H319.319V126.7H324.719V125.7ZM318.844 126.356L329.744 159.556L330.694 159.244L319.794 126.044L318.844 126.356ZM330.691 159.565L342.291 126.365L341.347 126.035L329.747 159.235L330.691 159.565ZM341.819 125.7H335.119V126.7H341.819V125.7ZM335.619 126.2V124.4H334.619V126.2H335.619ZM335.119 124.9H349.219V123.9H335.119V124.9ZM348.719 124.4V126.2H349.719V124.4H348.719ZM349.219 125.7H344.219V126.7H349.219V125.7ZM343.746 126.036L325.046 179.936L325.991 180.264L344.691 126.364L343.746 126.036ZM325.047 179.934C322.856 186.176 320.423 190.447 317.784 192.829L318.454 193.571C321.281 191.02 323.782 186.557 325.991 180.266L325.047 179.934ZM317.779 192.833C315.143 195.276 311.934 196.5 308.119 196.5V197.5C312.17 197.5 315.627 196.191 318.459 193.567L317.779 192.833ZM308.119 196.5C304.258 196.5 301.281 195.617 299.13 193.908L298.508 194.692C300.89 196.583 304.113 197.5 308.119 197.5V196.5ZM299.13 193.908C296.978 192.2 295.919 190.042 295.919 187.4H294.919C294.919 190.358 296.126 192.8 298.508 194.692L299.13 193.908ZM295.919 187.4C295.919 184.685 296.628 182.697 297.972 181.354L297.265 180.646C295.676 182.236 294.919 184.515 294.919 187.4H295.919ZM297.972 181.354C299.33 179.995 301.129 179.3 303.419 179.3V178.3C300.909 178.3 298.84 179.071 297.265 180.646L297.972 181.354ZM303.419 179.3C306.129 179.3 308.068 179.865 309.324 180.909C310.563 181.939 311.219 183.504 311.219 185.7H312.219C312.219 183.296 311.491 181.411 309.963 180.141C308.453 178.885 306.242 178.3 303.419 178.3V179.3ZM311.219 185.7C311.219 186.638 311.03 187.789 310.638 189.163L311.6 189.437C312.007 188.011 312.219 186.762 312.219 185.7H311.219ZM311.119 188.8H307.619V189.8H311.119V188.8ZM307.147 189.136C306.593 190.727 306.492 192.129 306.955 193.286L307.883 192.914C307.546 192.071 307.578 190.94 308.091 189.464L307.147 189.136ZM306.955 193.286C307.195 193.887 307.596 194.354 308.151 194.662C308.697 194.966 309.363 195.1 310.119 195.1V194.1C309.474 194.1 308.99 193.984 308.637 193.788C308.292 193.596 308.042 193.313 307.883 192.914L306.955 193.286ZM310.119 195.1C313.046 195.1 315.613 193.627 317.813 190.808L317.025 190.192C314.958 192.84 312.658 194.1 310.119 194.1V195.1ZM317.809 190.812C319.994 188.081 322.05 183.919 323.991 178.365L323.047 178.035C321.121 183.548 319.11 187.586 317.028 190.188L317.809 190.812ZM323.99 178.367L326.19 172.167L325.248 171.833L323.048 178.033L323.99 178.367ZM325.719 171.5H316.919V172.5H325.719V171.5ZM317.387 171.825L300.287 126.025L299.35 126.375L316.45 172.175L317.387 171.825ZM299.819 125.7H295.719V126.7H299.819V125.7ZM348.01 170.5L347.621 170.814L347.628 170.822L347.635 170.83L348.01 170.5ZM348.11 158.1L347.742 157.761L347.735 157.77L348.11 158.1ZM361.11 170.6L360.749 170.254L360.742 170.262L361.11 170.6ZM354.51 172.5C351.743 172.5 349.731 171.699 348.386 170.17L347.635 170.83C349.222 172.634 351.544 173.5 354.51 173.5V172.5ZM348.399 170.186C347.077 168.549 346.41 166.595 346.41 164.3H345.41C345.41 166.805 346.144 168.985 347.621 170.814L348.399 170.186ZM346.41 164.3C346.41 161.94 347.108 159.995 348.486 158.43L347.735 157.77C346.179 159.538 345.41 161.726 345.41 164.3H346.41ZM348.478 158.439C349.897 156.896 351.885 156.1 354.51 156.1V155.1C351.668 155.1 349.39 155.971 347.742 157.761L348.478 158.439ZM354.51 156.1C357.158 156.1 359.196 156.777 360.681 158.076L361.339 157.324C359.625 155.823 357.329 155.1 354.51 155.1V156.1ZM360.681 158.076C362.141 159.354 362.91 161.296 362.91 164H363.91C363.91 161.104 363.08 158.846 361.339 157.324L360.681 158.076ZM362.91 164C362.91 166.707 362.171 168.77 360.749 170.254L361.471 170.946C363.116 169.23 363.91 166.893 363.91 164H362.91ZM360.742 170.262C359.399 171.726 357.355 172.5 354.51 172.5V173.5C357.532 173.5 359.887 172.674 361.479 170.938L360.742 170.262Z"
    fill="#3D3D3D" />
</svg>